<?xml version="1.0" encoding="UTF-8"?>
<svg version="1.1" xmlns="http://www.w3.org/2000/svg" width="512" height="512">
<path d="M0 0 C1.73745304 -0.00542956 3.47490148 -0.01255687 5.21234131 -0.02124023 C9.9024778 -0.03937747 14.59225985 -0.03244598 19.28240204 -0.01972389 C24.2073202 -0.00954621 29.13220946 -0.01900275 34.05712891 -0.02526855 C42.32525033 -0.03253113 50.59322849 -0.02299382 58.86132812 -0.00390625 C68.39936873 0.01785979 77.93706724 0.01080744 87.47509956 -0.01121187 C95.68691992 -0.02940556 103.89863771 -0.03190483 112.11047173 -0.0214572 C117.00512163 -0.01524404 121.8996111 -0.01432636 126.79425049 -0.02760315 C131.39750307 -0.03921897 136.00031764 -0.03103199 140.60352325 -0.00802612 C142.2856397 -0.00276949 143.96779347 -0.00420015 145.64989471 -0.01307678 C159.34838924 -0.07866098 170.32244318 1.71972438 180.5859375 11.51757812 C192.73608295 24.24515623 192.1672945 38.2191084 192.10351562 54.80664062 C192.10894112 57.17462595 192.11606617 59.5426079 192.12475586 61.9105835 C192.14294106 68.31964191 192.13594134 74.72844183 192.12323952 81.13750458 C192.11610964 85.14532441 192.11747649 89.15312673 192.12120056 93.16094971 C192.12181349 93.82792079 192.12242643 94.49489187 192.12305793 95.18207419 C192.12433694 96.53734829 192.12563379 97.89262237 192.1269483 99.24789643 C192.13833288 111.93272345 192.12527383 124.61743452 192.10374683 137.30224252 C192.08587774 148.16769887 192.08898245 159.03298423 192.10742188 169.8984375 C192.12886622 182.54032133 192.13723444 195.18210374 192.12497282 207.82400322 C192.12369873 209.17407098 192.12244124 210.52413875 192.12120056 211.87420654 C192.12027491 212.87038952 192.12027491 212.87038952 192.11933056 213.88669741 C192.11588831 218.5489533 192.12187889 223.21110899 192.13111877 227.87335205 C192.14270391 234.15751066 192.13460241 240.44134751 192.11154175 246.7254715 C192.10626895 249.0268119 192.10774382 251.32817954 192.11659241 253.62950897 C192.17079685 269.16334057 191.87079307 281.69641259 180.5859375 293.51757812 C169.566424 304.0371515 157.70743996 305.11186202 143.171875 305.03515625 C141.43442196 305.04058581 139.69697352 305.04771312 137.95953369 305.05639648 C133.2693972 305.07453372 128.57961515 305.06760223 123.88947296 305.05488014 C118.9645548 305.04470246 114.03966554 305.054159 109.11474609 305.0604248 C100.84662467 305.06768738 92.57864651 305.05815007 84.31054688 305.0390625 C74.77250627 305.01729646 65.23480776 305.02434881 55.69677544 305.04636812 C47.48495508 305.06456181 39.27323729 305.06706108 31.06140327 305.05661345 C26.16675337 305.05040029 21.2722639 305.04948261 16.37762451 305.0627594 C11.77437193 305.07437522 7.17155736 305.06618824 2.56835175 305.04318237 C0.8862353 305.03792574 -0.79591847 305.0393564 -2.47801971 305.04823303 C-16.17651424 305.11381723 -27.15056818 303.31543187 -37.4140625 293.51757812 C-49.56420795 280.79000002 -48.9954195 266.81604785 -48.93164062 250.22851562 C-48.93706612 247.8605303 -48.94419117 245.49254835 -48.95288086 243.12457275 C-48.97106606 236.71551434 -48.96406634 230.30671442 -48.95136452 223.89765167 C-48.94423464 219.88983184 -48.94560149 215.88202952 -48.94932556 211.87420654 C-48.94993849 211.20723546 -48.95055143 210.54026438 -48.95118293 209.85308206 C-48.95246194 208.49780796 -48.95375879 207.14253388 -48.9550733 205.78725982 C-48.96645788 193.1024328 -48.95339883 180.41772173 -48.93187183 167.73291373 C-48.91400274 156.86745738 -48.91710745 146.00217202 -48.93554688 135.13671875 C-48.95699122 122.49483492 -48.96535944 109.85305251 -48.95309782 97.21115303 C-48.95182373 95.86108527 -48.95056624 94.5110175 -48.94932556 93.16094971 C-48.94870846 92.49682772 -48.94809136 91.83270573 -48.94745556 91.14845884 C-48.94401331 86.48620295 -48.95000389 81.82404726 -48.95924377 77.1618042 C-48.97082891 70.87764559 -48.96272741 64.59380874 -48.93966675 58.30968475 C-48.93439395 56.00834435 -48.93586882 53.70697671 -48.94471741 51.40564728 C-48.99892185 35.87181568 -48.69891807 23.33874366 -37.4140625 11.51757812 C-26.394549 0.99800475 -14.53556496 -0.07670577 0 0 Z M-26.6640625 25.95507812 C-32.44457029 33.04865166 -32.56383403 40.88927397 -32.54777527 49.68244934 C-32.55004083 50.59594153 -32.55230638 51.50943371 -32.55464059 52.45060748 C-32.56096239 55.50655397 -32.56015239 58.5624559 -32.55932617 61.6184082 C-32.5623188 63.81155962 -32.56572157 66.00471052 -32.56950378 68.19786072 C-32.57833747 74.15246808 -32.58068164 80.10706107 -32.58131957 86.06167436 C-32.58203043 89.78283923 -32.58416544 93.50400045 -32.58681679 97.22516441 C-32.59559073 109.53973248 -32.60023676 121.85429286 -32.59948631 134.16886393 C-32.59944636 134.83219401 -32.5994064 135.49552409 -32.59936523 136.17895508 C-32.59932435 136.84309898 -32.59928347 137.50724289 -32.59924135 138.19151237 C-32.59883501 148.95183243 -32.60840256 159.71211747 -32.6225036 170.47242741 C-32.6368821 181.532095 -32.64359001 192.59174468 -32.64290982 203.65142173 C-32.64265498 209.85613458 -32.64549887 216.06080781 -32.65608788 222.26551247 C-32.66577686 228.10218186 -32.66584248 233.9387738 -32.65857124 239.77544594 C-32.6575264 241.91476047 -32.65988231 244.05407984 -32.6659317 246.19338608 C-32.67366879 249.11960002 -32.66899538 252.04554762 -32.66130066 254.97175598 C-32.669016 256.23365217 -32.669016 256.23365217 -32.67688721 257.52104121 C-32.62445096 266.5800636 -31.45160626 274.51601682 -24.7734375 281.14648438 C-17.7837936 287.45235876 -10.98215502 288.63788143 -1.67887878 288.65129089 C-1.02673395 288.65355645 -0.37458912 288.65582201 0.29731768 288.65815622 C2.46881931 288.66445445 4.64025786 288.66366955 6.81176758 288.6628418 C8.37438538 288.66583591 9.93700244 288.66923902 11.49961853 288.67301941 C15.7352736 288.68183823 19.97090845 288.68419664 24.20657182 288.6848352 C26.85567512 288.68554693 29.50477332 288.6876836 32.15387535 288.69033241 C41.40377503 288.69957901 50.65366031 288.70366818 59.90356445 288.70288086 C68.51270905 288.70228033 77.12179093 288.71282897 85.73091966 288.72862452 C93.13324617 288.74171976 100.53555223 288.74706392 107.93789023 288.74642545 C112.35408623 288.74617103 116.77022649 288.74899097 121.1864109 288.7596035 C125.34214141 288.76931783 129.49776325 288.76934089 133.6534977 288.76208687 C135.17359069 288.76104515 136.69369058 288.76337928 138.21377182 288.76944733 C153.34871759 289.05252993 153.34871759 289.05252993 166.5859375 282.51757812 C174.64530585 274.40022871 175.73991661 266.44979535 175.71965027 255.35270691 C175.7230486 253.98246863 175.7230486 253.98246863 175.72651559 252.58454877 C175.73283739 249.52860228 175.73202739 246.47270035 175.73120117 243.41674805 C175.7341938 241.22359663 175.73759657 239.03044573 175.74137878 236.83729553 C175.75021247 230.88268817 175.75255664 224.92809518 175.75319457 218.97348189 C175.75390543 215.25231702 175.75604044 211.5311558 175.75869179 207.80999184 C175.76746573 195.49542377 175.77211176 183.18086339 175.77136131 170.86629232 C175.77132136 170.20296224 175.7712814 169.53963216 175.77124023 168.85620117 C175.77117891 167.85998531 175.77117891 167.85998531 175.77111635 166.84364388 C175.77071001 156.08332382 175.78027756 145.32303878 175.7943786 134.56272884 C175.8087571 123.50306125 175.81546501 112.44341157 175.81478482 101.38373452 C175.81452998 95.17902167 175.81737387 88.97434844 175.82796288 82.76964378 C175.83765186 76.93297439 175.83771748 71.09638245 175.83044624 65.25971031 C175.8294014 63.12039578 175.83175731 60.98107641 175.8378067 58.84177017 C175.84554379 55.91555623 175.84087038 52.98960863 175.83317566 50.06340027 C175.840891 48.80150408 175.840891 48.80150408 175.84876221 47.51411504 C175.79632596 38.45509265 174.62348126 30.51913943 167.9453125 23.88867188 C160.9556686 17.58279749 154.15403002 16.39727482 144.85075378 16.38386536 C144.19860895 16.3815998 143.54646412 16.37933424 142.87455732 16.37700003 C140.70305569 16.3707018 138.53161714 16.3714867 136.36010742 16.37231445 C134.79748962 16.36932034 133.23487256 16.36591723 131.67225647 16.36213684 C127.4366014 16.35331802 123.20096655 16.35095961 118.96530318 16.35032105 C116.31619988 16.34960932 113.66710168 16.34747265 111.01799965 16.34482384 C101.76809997 16.33557724 92.51821469 16.33148807 83.26831055 16.33227539 C74.65916595 16.33287592 66.05008407 16.32232728 57.44095534 16.30653173 C50.03862883 16.29343649 42.63632277 16.28809233 35.23398477 16.2887308 C30.81778877 16.28898522 26.40164851 16.28616528 21.9854641 16.27555275 C17.82973359 16.26583842 13.67411175 16.26581536 9.5183773 16.27306938 C7.99828431 16.2741111 6.47818442 16.27177697 4.95810318 16.26570892 C-7.3595902 16.21974552 -17.8695 16.20688837 -26.6640625 25.95507812 Z " fill="#000000" transform="translate(320.4140625,207.482421875)"/>
<path d="M0 0 C1.73745304 -0.00542956 3.47490148 -0.01255687 5.21234131 -0.02124023 C9.9024778 -0.03937747 14.59225985 -0.03244598 19.28240204 -0.01972389 C24.2073202 -0.00954621 29.13220946 -0.01900275 34.05712891 -0.02526855 C42.32525033 -0.03253113 50.59322849 -0.02299382 58.86132812 -0.00390625 C68.39936873 0.01785979 77.93706724 0.01080744 87.47509956 -0.01121187 C95.68691992 -0.02940556 103.89863771 -0.03190483 112.11047173 -0.0214572 C117.00512163 -0.01524404 121.8996111 -0.01432636 126.79425049 -0.02760315 C131.39750307 -0.03921897 136.00031764 -0.03103199 140.60352325 -0.00802612 C142.2856397 -0.00276949 143.96779347 -0.00420015 145.64989471 -0.01307678 C159.34838924 -0.07866098 170.32244318 1.71972438 180.5859375 11.51757812 C192.73608295 24.24515623 192.1672945 38.2191084 192.10351562 54.80664062 C192.10894112 57.17462595 192.11606617 59.5426079 192.12475586 61.9105835 C192.14294106 68.31964191 192.13594134 74.72844183 192.12323952 81.13750458 C192.11610964 85.14532441 192.11747649 89.15312673 192.12120056 93.16094971 C192.12181349 93.82792079 192.12242643 94.49489187 192.12305793 95.18207419 C192.12433694 96.53734829 192.12563379 97.89262237 192.1269483 99.24789643 C192.13833288 111.93272345 192.12527383 124.61743452 192.10374683 137.30224252 C192.08587774 148.16769887 192.08898245 159.03298423 192.10742188 169.8984375 C192.12886622 182.54032133 192.13723444 195.18210374 192.12497282 207.82400322 C192.12369873 209.17407098 192.12244124 210.52413875 192.12120056 211.87420654 C192.12027491 212.87038952 192.12027491 212.87038952 192.11933056 213.88669741 C192.11588831 218.5489533 192.12187889 223.21110899 192.13111877 227.87335205 C192.14270391 234.15751066 192.13460241 240.44134751 192.11154175 246.7254715 C192.10626895 249.0268119 192.10774382 251.32817954 192.11659241 253.62950897 C192.17079685 269.16334057 191.87079307 281.69641259 180.5859375 293.51757812 C169.566424 304.0371515 157.70743996 305.11186202 143.171875 305.03515625 C141.43442196 305.04058581 139.69697352 305.04771312 137.95953369 305.05639648 C133.2693972 305.07453372 128.57961515 305.06760223 123.88947296 305.05488014 C118.9645548 305.04470246 114.03966554 305.054159 109.11474609 305.0604248 C100.84662467 305.06768738 92.57864651 305.05815007 84.31054688 305.0390625 C74.77250627 305.01729646 65.23480776 305.02434881 55.69677544 305.04636812 C47.48495508 305.06456181 39.27323729 305.06706108 31.06140327 305.05661345 C26.16675337 305.05040029 21.2722639 305.04948261 16.37762451 305.0627594 C11.77437193 305.07437522 7.17155736 305.06618824 2.56835175 305.04318237 C0.8862353 305.03792574 -0.79591847 305.0393564 -2.47801971 305.04823303 C-16.17651424 305.11381723 -27.15056818 303.31543187 -37.4140625 293.51757812 C-49.56420795 280.79000002 -48.9954195 266.81604785 -48.93164062 250.22851562 C-48.93706612 247.8605303 -48.94419117 245.49254835 -48.95288086 243.12457275 C-48.97106606 236.71551434 -48.96406634 230.30671442 -48.95136452 223.89765167 C-48.94423464 219.88983184 -48.94560149 215.88202952 -48.94932556 211.87420654 C-48.94993849 211.20723546 -48.95055143 210.54026438 -48.95118293 209.85308206 C-48.95246194 208.49780796 -48.95375879 207.14253388 -48.9550733 205.78725982 C-48.96645788 193.1024328 -48.95339883 180.41772173 -48.93187183 167.73291373 C-48.91400274 156.86745738 -48.91710745 146.00217202 -48.93554688 135.13671875 C-48.95699122 122.49483492 -48.96535944 109.85305251 -48.95309782 97.21115303 C-48.95182373 95.86108527 -48.95056624 94.5110175 -48.94932556 93.16094971 C-48.94870846 92.49682772 -48.94809136 91.83270573 -48.94745556 91.14845884 C-48.94401331 86.48620295 -48.95000389 81.82404726 -48.95924377 77.1618042 C-48.97082891 70.87764559 -48.96272741 64.59380874 -48.93966675 58.30968475 C-48.93439395 56.00834435 -48.93586882 53.70697671 -48.94471741 51.40564728 C-48.99892185 35.87181568 -48.69891807 23.33874366 -37.4140625 11.51757812 C-26.394549 0.99800475 -14.53556496 -0.07670577 0 0 Z M-26.6640625 25.95507812 C-32.44457029 33.04865166 -32.56383403 40.88927397 -32.54777527 49.68244934 C-32.55004083 50.59594153 -32.55230638 51.50943371 -32.55464059 52.45060748 C-32.56096239 55.50655397 -32.56015239 58.5624559 -32.55932617 61.6184082 C-32.5623188 63.81155962 -32.56572157 66.00471052 -32.56950378 68.19786072 C-32.57833747 74.15246808 -32.58068164 80.10706107 -32.58131957 86.06167436 C-32.58203043 89.78283923 -32.58416544 93.50400045 -32.58681679 97.22516441 C-32.59559073 109.53973248 -32.60023676 121.85429286 -32.59948631 134.16886393 C-32.59944636 134.83219401 -32.5994064 135.49552409 -32.59936523 136.17895508 C-32.59932435 136.84309898 -32.59928347 137.50724289 -32.59924135 138.19151237 C-32.59883501 148.95183243 -32.60840256 159.71211747 -32.6225036 170.47242741 C-32.6368821 181.532095 -32.64359001 192.59174468 -32.64290982 203.65142173 C-32.64265498 209.85613458 -32.64549887 216.06080781 -32.65608788 222.26551247 C-32.66577686 228.10218186 -32.66584248 233.9387738 -32.65857124 239.77544594 C-32.6575264 241.91476047 -32.65988231 244.05407984 -32.6659317 246.19338608 C-32.67366879 249.11960002 -32.66899538 252.04554762 -32.66130066 254.97175598 C-32.669016 256.23365217 -32.669016 256.23365217 -32.67688721 257.52104121 C-32.62445096 266.5800636 -31.45160626 274.51601682 -24.7734375 281.14648438 C-17.7837936 287.45235876 -10.98215502 288.63788143 -1.67887878 288.65129089 C-1.02673395 288.65355645 -0.37458912 288.65582201 0.29731768 288.65815622 C2.46881931 288.66445445 4.64025786 288.66366955 6.81176758 288.6628418 C8.37438538 288.66583591 9.93700244 288.66923902 11.49961853 288.67301941 C15.7352736 288.68183823 19.97090845 288.68419664 24.20657182 288.6848352 C26.85567512 288.68554693 29.50477332 288.6876836 32.15387535 288.69033241 C41.40377503 288.69957901 50.65366031 288.70366818 59.90356445 288.70288086 C68.51270905 288.70228033 77.12179093 288.71282897 85.73091966 288.72862452 C93.13324617 288.74171976 100.53555223 288.74706392 107.93789023 288.74642545 C112.35408623 288.74617103 116.77022649 288.74899097 121.1864109 288.7596035 C125.34214141 288.76931783 129.49776325 288.76934089 133.6534977 288.76208687 C135.17359069 288.76104515 136.69369058 288.76337928 138.21377182 288.76944733 C153.34871759 289.05252993 153.34871759 289.05252993 166.5859375 282.51757812 C174.64530585 274.40022871 175.73991661 266.44979535 175.71965027 255.35270691 C175.7230486 253.98246863 175.7230486 253.98246863 175.72651559 252.58454877 C175.73283739 249.52860228 175.73202739 246.47270035 175.73120117 243.41674805 C175.7341938 241.22359663 175.73759657 239.03044573 175.74137878 236.83729553 C175.75021247 230.88268817 175.75255664 224.92809518 175.75319457 218.97348189 C175.75390543 215.25231702 175.75604044 211.5311558 175.75869179 207.80999184 C175.76746573 195.49542377 175.77211176 183.18086339 175.77136131 170.86629232 C175.77132136 170.20296224 175.7712814 169.53963216 175.77124023 168.85620117 C175.77117891 167.85998531 175.77117891 167.85998531 175.77111635 166.84364388 C175.77071001 156.08332382 175.78027756 145.32303878 175.7943786 134.56272884 C175.8087571 123.50306125 175.81546501 112.44341157 175.81478482 101.38373452 C175.81452998 95.17902167 175.81737387 88.97434844 175.82796288 82.76964378 C175.83765186 76.93297439 175.83771748 71.09638245 175.83044624 65.25971031 C175.8294014 63.12039578 175.83175731 60.98107641 175.8378067 58.84177017 C175.84554379 55.91555623 175.84087038 52.98960863 175.83317566 50.06340027 C175.840891 48.80150408 175.840891 48.80150408 175.84876221 47.51411504 C175.79632596 38.45509265 174.62348126 30.51913943 167.9453125 23.88867188 C160.9556686 17.58279749 154.15403002 16.39727482 144.85075378 16.38386536 C144.19860895 16.3815998 143.54646412 16.37933424 142.87455732 16.37700003 C140.70305569 16.3707018 138.53161714 16.3714867 136.36010742 16.37231445 C134.79748962 16.36932034 133.23487256 16.36591723 131.67225647 16.36213684 C127.4366014 16.35331802 123.20096655 16.35095961 118.96530318 16.35032105 C116.31619988 16.34960932 113.66710168 16.34747265 111.01799965 16.34482384 C101.76809997 16.33557724 92.51821469 16.33148807 83.26831055 16.33227539 C74.65916595 16.33287592 66.05008407 16.32232728 57.44095534 16.30653173 C50.03862883 16.29343649 42.63632277 16.28809233 35.23398477 16.2887308 C30.81778877 16.28898522 26.40164851 16.28616528 21.9854641 16.27555275 C17.82973359 16.26583842 13.67411175 16.26581536 9.5183773 16.27306938 C7.99828431 16.2741111 6.47818442 16.27177697 4.95810318 16.26570892 C-7.3595902 16.21974552 -17.8695 16.20688837 -26.6640625 25.95507812 Z " fill="#000000" transform="translate(48.4140625,-0.517578125)"/>
<path d="M0 0 C1.73745304 -0.00542956 3.47490148 -0.01255687 5.21234131 -0.02124023 C9.9024778 -0.03937747 14.59225985 -0.03244598 19.28240204 -0.01972389 C24.2073202 -0.00954621 29.13220946 -0.01900275 34.05712891 -0.02526855 C42.32525033 -0.03253113 50.59322849 -0.02299382 58.86132812 -0.00390625 C68.39936873 0.01785979 77.93706724 0.01080744 87.47509956 -0.01121187 C95.68691992 -0.02940556 103.89863771 -0.03190483 112.11047173 -0.0214572 C117.00512163 -0.01524404 121.8996111 -0.01432636 126.79425049 -0.02760315 C131.39750307 -0.03921897 136.00031764 -0.03103199 140.60352325 -0.00802612 C142.2856397 -0.00276949 143.96779347 -0.00420015 145.64989471 -0.01307678 C159.34838924 -0.07866098 170.32244318 1.71972438 180.5859375 11.51757812 C189.30063621 20.64644074 192.20314891 30.63891249 192.10351562 43.05664062 C192.1105249 44.15248474 192.11753418 45.24832886 192.12475586 46.37738037 C192.14222628 49.96604459 192.13075146 53.5539072 192.1171875 57.14257812 C192.11988554 59.65641428 192.12377056 62.17024942 192.12878418 64.68408203 C192.13466442 69.93920935 192.12655085 75.1941319 192.10742188 80.44921875 C192.08565848 86.49730604 192.09271197 92.54485369 192.1147275 98.59292793 C192.13517017 104.446515 192.13287507 110.29989944 192.12120056 116.15350342 C192.11854423 118.62847979 192.12176426 121.10347006 192.13111877 123.57843018 C192.14134926 127.0454892 192.12569127 130.51153173 192.10351562 133.97851562 C192.11161255 134.98767029 192.11970947 135.99682495 192.12805176 137.03656006 C191.9962664 148.23478518 188.33053731 157.40491813 180.5859375 165.51757812 C169.566424 176.0371515 157.70743996 177.11186202 143.171875 177.03515625 C141.43442196 177.04058581 139.69697352 177.04771312 137.95953369 177.05639648 C133.2693972 177.07453372 128.57961515 177.06760223 123.88947296 177.05488014 C118.9645548 177.04470246 114.03966554 177.054159 109.11474609 177.0604248 C100.84662467 177.06768738 92.57864651 177.05815007 84.31054688 177.0390625 C74.77250627 177.01729646 65.23480776 177.02434881 55.69677544 177.04636812 C47.48495508 177.06456181 39.27323729 177.06706108 31.06140327 177.05661345 C26.16675337 177.05040029 21.2722639 177.04948261 16.37762451 177.0627594 C11.77437193 177.07437522 7.17155736 177.06618824 2.56835175 177.04318237 C0.8862353 177.03792574 -0.79591847 177.0393564 -2.47801971 177.04823303 C-16.17651424 177.11381723 -27.15056818 175.31543187 -37.4140625 165.51757812 C-46.12876121 156.38871551 -49.03127391 146.39624376 -48.93164062 133.97851562 C-48.9386499 132.88267151 -48.94565918 131.78682739 -48.95288086 130.65777588 C-48.97035128 127.06911166 -48.95887646 123.48124905 -48.9453125 119.89257812 C-48.94801054 117.37874197 -48.95189556 114.86490683 -48.95690918 112.35107422 C-48.96278942 107.0959469 -48.95467585 101.84102435 -48.93554688 96.5859375 C-48.91378348 90.53785021 -48.92083697 84.49030256 -48.9428525 78.44222832 C-48.96329517 72.58864125 -48.96100007 66.73525681 -48.94932556 60.88165283 C-48.94666923 58.40667646 -48.94988926 55.93168619 -48.95924377 53.45672607 C-48.96947426 49.98966705 -48.95381627 46.52362452 -48.93164062 43.05664062 C-48.93973755 42.04748596 -48.94783447 41.0383313 -48.95617676 39.99859619 C-48.8243914 28.80037107 -45.15866231 19.63023812 -37.4140625 11.51757812 C-26.394549 0.99800475 -14.53556496 -0.07670577 0 0 Z M-26.6640625 25.95507812 C-32.48558068 33.09897772 -32.56398033 41.0161917 -32.55932617 49.8684082 C-32.56268478 50.7911705 -32.5660434 51.7139328 -32.56950378 52.66465759 C-32.57897766 55.70548867 -32.58095514 58.74626447 -32.58203125 61.78710938 C-32.58524641 63.90931724 -32.58861068 66.03152489 -32.59211731 68.1537323 C-32.59809974 72.59964512 -32.59995813 77.04553852 -32.59936523 81.49145508 C-32.59926369 87.17393217 -32.61291228 92.85628411 -32.63013744 98.53873158 C-32.64128435 102.92177395 -32.64328361 107.30478632 -32.64275551 111.68784142 C-32.6439317 113.78209553 -32.64833315 115.87635051 -32.65608788 117.97059059 C-32.66594167 120.90666972 -32.66298844 123.84248052 -32.65698242 126.77856445 C-32.66260193 127.6344516 -32.66822144 128.49033875 -32.67401123 129.37216187 C-32.62688861 138.48843689 -31.49930987 146.46865395 -24.7734375 153.14648438 C-17.7837936 159.45235876 -10.98215502 160.63788143 -1.67887878 160.65129089 C-0.70066153 160.65468923 -0.70066153 160.65468923 0.29731768 160.65815622 C2.46881931 160.66445445 4.64025786 160.66366955 6.81176758 160.6628418 C8.37438538 160.66583591 9.93700244 160.66923902 11.49961853 160.67301941 C15.7352736 160.68183823 19.97090845 160.68419664 24.20657182 160.6848352 C26.85567512 160.68554693 29.50477332 160.6876836 32.15387535 160.69033241 C41.40377503 160.69957901 50.65366031 160.70366818 59.90356445 160.70288086 C68.51270905 160.70228033 77.12179093 160.71282897 85.73091966 160.72862452 C93.13324617 160.74171976 100.53555223 160.74706392 107.93789023 160.74642545 C112.35408623 160.74617103 116.77022649 160.74899097 121.1864109 160.7596035 C125.34214141 160.76931783 129.49776325 160.76934089 133.6534977 160.76208687 C135.17359069 160.76104515 136.69369058 160.76337928 138.21377182 160.76944733 C153.34871759 161.05252993 153.34871759 161.05252993 166.5859375 154.51757812 C174.70034186 146.34479675 175.73707156 138.3322329 175.73120117 127.16674805 C175.73455978 126.24398575 175.7379184 125.32122345 175.74137878 124.37049866 C175.75085266 121.32966758 175.75283014 118.28889178 175.75390625 115.24804688 C175.75712141 113.12583901 175.76048568 111.00363136 175.76399231 108.88142395 C175.76997474 104.43551113 175.77183313 99.98961773 175.77124023 95.54370117 C175.77113869 89.86122408 175.78478728 84.17887214 175.80201244 78.49642467 C175.81315935 74.1133823 175.81515861 69.73036993 175.81463051 65.34731483 C175.8158067 63.25306072 175.82020815 61.15880574 175.82796288 59.06456566 C175.83781667 56.12848653 175.83486344 53.19267573 175.82885742 50.2565918 C175.83447693 49.40070465 175.84009644 48.5448175 175.84588623 47.66299438 C175.79876361 38.54671936 174.67118487 30.5665023 167.9453125 23.88867188 C160.9556686 17.58279749 154.15403002 16.39727482 144.85075378 16.38386536 C144.19860895 16.3815998 143.54646412 16.37933424 142.87455732 16.37700003 C140.70305569 16.3707018 138.53161714 16.3714867 136.36010742 16.37231445 C134.79748962 16.36932034 133.23487256 16.36591723 131.67225647 16.36213684 C127.4366014 16.35331802 123.20096655 16.35095961 118.96530318 16.35032105 C116.31619988 16.34960932 113.66710168 16.34747265 111.01799965 16.34482384 C101.76809997 16.33557724 92.51821469 16.33148807 83.26831055 16.33227539 C74.65916595 16.33287592 66.05008407 16.32232728 57.44095534 16.30653173 C50.03862883 16.29343649 42.63632277 16.28809233 35.23398477 16.2887308 C30.81778877 16.28898522 26.40164851 16.28616528 21.9854641 16.27555275 C17.82973359 16.26583842 13.67411175 16.26581536 9.5183773 16.27306938 C7.99828431 16.2741111 6.47818442 16.27177697 4.95810318 16.26570892 C-7.3595902 16.21974552 -17.8695 16.20688837 -26.6640625 25.95507812 Z " fill="#000000" transform="translate(48.4140625,335.482421875)"/>
<path d="M0 0 C1.73745304 -0.00542956 3.47490148 -0.01255687 5.21234131 -0.02124023 C9.9024778 -0.03937747 14.59225985 -0.03244598 19.28240204 -0.01972389 C24.2073202 -0.00954621 29.13220946 -0.01900275 34.05712891 -0.02526855 C42.32525033 -0.03253113 50.59322849 -0.02299382 58.86132812 -0.00390625 C68.39936873 0.01785979 77.93706724 0.01080744 87.47509956 -0.01121187 C95.68691992 -0.02940556 103.89863771 -0.03190483 112.11047173 -0.0214572 C117.00512163 -0.01524404 121.8996111 -0.01432636 126.79425049 -0.02760315 C131.39750307 -0.03921897 136.00031764 -0.03103199 140.60352325 -0.00802612 C142.2856397 -0.00276949 143.96779347 -0.00420015 145.64989471 -0.01307678 C159.34838924 -0.07866098 170.32244318 1.71972438 180.5859375 11.51757812 C189.30063621 20.64644074 192.20314891 30.63891249 192.10351562 43.05664062 C192.1105249 44.15248474 192.11753418 45.24832886 192.12475586 46.37738037 C192.14222628 49.96604459 192.13075146 53.5539072 192.1171875 57.14257812 C192.11988554 59.65641428 192.12377056 62.17024942 192.12878418 64.68408203 C192.13466442 69.93920935 192.12655085 75.1941319 192.10742188 80.44921875 C192.08565848 86.49730604 192.09271197 92.54485369 192.1147275 98.59292793 C192.13517017 104.446515 192.13287507 110.29989944 192.12120056 116.15350342 C192.11854423 118.62847979 192.12176426 121.10347006 192.13111877 123.57843018 C192.14134926 127.0454892 192.12569127 130.51153173 192.10351562 133.97851562 C192.11161255 134.98767029 192.11970947 135.99682495 192.12805176 137.03656006 C191.9962664 148.23478518 188.33053731 157.40491813 180.5859375 165.51757812 C169.566424 176.0371515 157.70743996 177.11186202 143.171875 177.03515625 C141.43442196 177.04058581 139.69697352 177.04771312 137.95953369 177.05639648 C133.2693972 177.07453372 128.57961515 177.06760223 123.88947296 177.05488014 C118.9645548 177.04470246 114.03966554 177.054159 109.11474609 177.0604248 C100.84662467 177.06768738 92.57864651 177.05815007 84.31054688 177.0390625 C74.77250627 177.01729646 65.23480776 177.02434881 55.69677544 177.04636812 C47.48495508 177.06456181 39.27323729 177.06706108 31.06140327 177.05661345 C26.16675337 177.05040029 21.2722639 177.04948261 16.37762451 177.0627594 C11.77437193 177.07437522 7.17155736 177.06618824 2.56835175 177.04318237 C0.8862353 177.03792574 -0.79591847 177.0393564 -2.47801971 177.04823303 C-16.17651424 177.11381723 -27.15056818 175.31543187 -37.4140625 165.51757812 C-46.12876121 156.38871551 -49.03127391 146.39624376 -48.93164062 133.97851562 C-48.9386499 132.88267151 -48.94565918 131.78682739 -48.95288086 130.65777588 C-48.97035128 127.06911166 -48.95887646 123.48124905 -48.9453125 119.89257812 C-48.94801054 117.37874197 -48.95189556 114.86490683 -48.95690918 112.35107422 C-48.96278942 107.0959469 -48.95467585 101.84102435 -48.93554688 96.5859375 C-48.91378348 90.53785021 -48.92083697 84.49030256 -48.9428525 78.44222832 C-48.96329517 72.58864125 -48.96100007 66.73525681 -48.94932556 60.88165283 C-48.94666923 58.40667646 -48.94988926 55.93168619 -48.95924377 53.45672607 C-48.96947426 49.98966705 -48.95381627 46.52362452 -48.93164062 43.05664062 C-48.93973755 42.04748596 -48.94783447 41.0383313 -48.95617676 39.99859619 C-48.8243914 28.80037107 -45.15866231 19.63023812 -37.4140625 11.51757812 C-26.394549 0.99800475 -14.53556496 -0.07670577 0 0 Z M-26.6640625 25.95507812 C-32.48558068 33.09897772 -32.56398033 41.0161917 -32.55932617 49.8684082 C-32.56268478 50.7911705 -32.5660434 51.7139328 -32.56950378 52.66465759 C-32.57897766 55.70548867 -32.58095514 58.74626447 -32.58203125 61.78710938 C-32.58524641 63.90931724 -32.58861068 66.03152489 -32.59211731 68.1537323 C-32.59809974 72.59964512 -32.59995813 77.04553852 -32.59936523 81.49145508 C-32.59926369 87.17393217 -32.61291228 92.85628411 -32.63013744 98.53873158 C-32.64128435 102.92177395 -32.64328361 107.30478632 -32.64275551 111.68784142 C-32.6439317 113.78209553 -32.64833315 115.87635051 -32.65608788 117.97059059 C-32.66594167 120.90666972 -32.66298844 123.84248052 -32.65698242 126.77856445 C-32.66260193 127.6344516 -32.66822144 128.49033875 -32.67401123 129.37216187 C-32.62688861 138.48843689 -31.49930987 146.46865395 -24.7734375 153.14648438 C-17.7837936 159.45235876 -10.98215502 160.63788143 -1.67887878 160.65129089 C-0.70066153 160.65468923 -0.70066153 160.65468923 0.29731768 160.65815622 C2.46881931 160.66445445 4.64025786 160.66366955 6.81176758 160.6628418 C8.37438538 160.66583591 9.93700244 160.66923902 11.49961853 160.67301941 C15.7352736 160.68183823 19.97090845 160.68419664 24.20657182 160.6848352 C26.85567512 160.68554693 29.50477332 160.6876836 32.15387535 160.69033241 C41.40377503 160.69957901 50.65366031 160.70366818 59.90356445 160.70288086 C68.51270905 160.70228033 77.12179093 160.71282897 85.73091966 160.72862452 C93.13324617 160.74171976 100.53555223 160.74706392 107.93789023 160.74642545 C112.35408623 160.74617103 116.77022649 160.74899097 121.1864109 160.7596035 C125.34214141 160.76931783 129.49776325 160.76934089 133.6534977 160.76208687 C135.17359069 160.76104515 136.69369058 160.76337928 138.21377182 160.76944733 C153.34871759 161.05252993 153.34871759 161.05252993 166.5859375 154.51757812 C174.70034186 146.34479675 175.73707156 138.3322329 175.73120117 127.16674805 C175.73455978 126.24398575 175.7379184 125.32122345 175.74137878 124.37049866 C175.75085266 121.32966758 175.75283014 118.28889178 175.75390625 115.24804688 C175.75712141 113.12583901 175.76048568 111.00363136 175.76399231 108.88142395 C175.76997474 104.43551113 175.77183313 99.98961773 175.77124023 95.54370117 C175.77113869 89.86122408 175.78478728 84.17887214 175.80201244 78.49642467 C175.81315935 74.1133823 175.81515861 69.73036993 175.81463051 65.34731483 C175.8158067 63.25306072 175.82020815 61.15880574 175.82796288 59.06456566 C175.83781667 56.12848653 175.83486344 53.19267573 175.82885742 50.2565918 C175.83447693 49.40070465 175.84009644 48.5448175 175.84588623 47.66299438 C175.79876361 38.54671936 174.67118487 30.5665023 167.9453125 23.88867188 C160.9556686 17.58279749 154.15403002 16.39727482 144.85075378 16.38386536 C144.19860895 16.3815998 143.54646412 16.37933424 142.87455732 16.37700003 C140.70305569 16.3707018 138.53161714 16.3714867 136.36010742 16.37231445 C134.79748962 16.36932034 133.23487256 16.36591723 131.67225647 16.36213684 C127.4366014 16.35331802 123.20096655 16.35095961 118.96530318 16.35032105 C116.31619988 16.34960932 113.66710168 16.34747265 111.01799965 16.34482384 C101.76809997 16.33557724 92.51821469 16.33148807 83.26831055 16.33227539 C74.65916595 16.33287592 66.05008407 16.32232728 57.44095534 16.30653173 C50.03862883 16.29343649 42.63632277 16.28809233 35.23398477 16.2887308 C30.81778877 16.28898522 26.40164851 16.28616528 21.9854641 16.27555275 C17.82973359 16.26583842 13.67411175 16.26581536 9.5183773 16.27306938 C7.99828431 16.2741111 6.47818442 16.27177697 4.95810318 16.26570892 C-7.3595902 16.21974552 -17.8695 16.20688837 -26.6640625 25.95507812 Z " fill="#000000" transform="translate(320.4140625,-0.517578125)"/>
</svg>
